<?xml version="1.0" encoding="utf-8"?>
<!-- Generator: Adobe Illustrator 22.0.1, SVG Export Plug-In . SVG Version: 6.00 Build 0)  -->
<svg version="1.1" id="Layer_1" xmlns="http://www.w3.org/2000/svg" xmlns:xlink="http://www.w3.org/1999/xlink" x="0px" y="0px"
	 viewBox="0 0 64 64" style="enable-background:new 0 0 64 64;" xml:space="preserve">
<g>
	<path d="M34.8,31.5c0,1.8-1.5,3.3-3.3,3.3c-1.8,0-3.3-1.5-3.3-3.3s1.5-3.3,3.3-3.3C33.3,28.2,34.8,29.7,34.8,31.5
		C34.8,31.5,34.8,31.5,34.8,31.5z M34.8,16.8c0,1.8-1.5,3.3-3.3,3.3c-1.8,0-3.3-1.5-3.3-3.3c0-1.8,1.5-3.3,3.3-3.3
		C33.3,13.5,34.8,15,34.8,16.8C34.8,16.8,34.8,16.8,34.8,16.8z M24.6,18.1c1.2,1.4,1,3.4-0.4,4.6c-1.4,1.2-3.5,1-4.6-0.4
		c-1.2-1.4-1-3.4,0.4-4.6C21.3,16.5,23.4,16.7,24.6,18.1C24.6,18.1,24.6,18.1,24.6,18.1z M17.6,25.7c1.8,0.3,3,2,2.6,3.8
		c-0.3,1.8-2,3-3.8,2.7c-1.8-0.3-3-2-2.6-3.8C14.1,26.6,15.8,25.4,17.6,25.7C17.6,25.7,17.6,25.7,17.6,25.7z M17.1,36
		c1.6-0.9,3.6-0.4,4.5,1.2c0.9,1.6,0.4,3.6-1.2,4.5c-1.6,0.9-3.6,0.4-4.5-1.2C15,38.9,15.5,36.9,17.1,36C17.1,36,17.1,36,17.1,36z
		 M23.4,44.2c0.6-1.7,2.5-2.6,4.2-1.9c1.7,0.6,2.6,2.5,2,4.2c-0.6,1.7-2.5,2.6-4.2,1.9C23.6,47.8,22.7,45.9,23.4,44.2
		C23.4,44.2,23.4,44.2,23.4,44.2z M33.4,46.5c-0.6-1.7,0.3-3.6,2-4.2c1.7-0.6,3.6,0.2,4.2,1.9c0.6,1.7-0.3,3.6-2,4.2
		C35.9,49,34.1,48.2,33.4,46.5C33.4,46.5,33.4,46.5,33.4,46.5z M42.6,41.7c-1.6-0.9-2.1-2.9-1.2-4.5c0.9-1.6,2.9-2.1,4.5-1.2
		c1.6,0.9,2.1,2.9,1.2,4.5C46.2,42.1,44.2,42.6,42.6,41.7C42.6,41.7,42.6,41.7,42.6,41.7z M46.6,32.2c-1.8,0.3-3.5-0.9-3.8-2.7
		c-0.3-1.8,0.9-3.5,2.6-3.8c1.8-0.3,3.5,0.9,3.8,2.7C49.5,30.2,48.4,31.9,46.6,32.2C46.6,32.2,46.6,32.2,46.6,32.2z M43.5,22.3
		c-1.2,1.4-3.2,1.6-4.6,0.4c-1.4-1.2-1.6-3.2-0.4-4.6c1.2-1.4,3.2-1.6,4.6-0.4C44.5,18.9,44.7,21,43.5,22.3
		C43.5,22.3,43.5,22.3,43.5,22.3z M34.8,4.3c0,1.8-1.5,3.3-3.3,3.3c-1.8,0-3.3-1.5-3.3-3.3S29.7,1,31.5,1C33.3,1,34.8,2.5,34.8,4.3
		C34.8,4.3,34.8,4.3,34.8,4.3z M20.7,6.3c0.9,1.6,0.4,3.6-1.2,4.5c-1.6,0.9-3.6,0.4-4.5-1.2C14.1,8,14.7,6,16.2,5.1
		C17.8,4.2,19.8,4.7,20.7,6.3C20.7,6.3,20.7,6.3,20.7,6.3z M9.6,15c1.6,0.9,2.1,2.9,1.2,4.5c-0.9,1.6-2.9,2.1-4.5,1.2
		c-1.6-0.9-2.1-2.9-1.2-4.5C6,14.7,8,14.1,9.6,15C9.6,15,9.6,15,9.6,15z M4.3,28.2c1.8,0,3.3,1.5,3.3,3.3c0,1.8-1.5,3.3-3.3,3.3
		c-1.8,0-3.3-1.5-3.3-3.3C1,29.7,2.5,28.2,4.3,28.2C4.3,28.2,4.3,28.2,4.3,28.2z M6.3,42.3c1.6-0.9,3.6-0.4,4.5,1.2
		c0.9,1.6,0.4,3.6-1.2,4.5C8,48.9,6,48.3,5.1,46.7C4.2,45.2,4.7,43.2,6.3,42.3C6.3,42.3,6.3,42.3,6.3,42.3z M15,53.4
		c0.9-1.6,2.9-2.1,4.5-1.2c1.6,0.9,2.1,2.9,1.2,4.5c-0.9,1.6-2.9,2.1-4.5,1.2C14.7,57,14.1,55,15,53.4C15,53.4,15,53.4,15,53.4z
		 M28.2,58.7c0-1.8,1.5-3.3,3.3-3.3c1.8,0,3.3,1.5,3.3,3.3c0,1.8-1.5,3.3-3.3,3.3C29.7,62,28.2,60.5,28.2,58.7
		C28.2,58.7,28.2,58.7,28.2,58.7z M42.3,56.7c-0.9-1.6-0.4-3.6,1.2-4.5c1.6-0.9,3.6-0.4,4.5,1.2c0.9,1.6,0.4,3.6-1.2,4.5
		C45.2,58.8,43.2,58.3,42.3,56.7C42.3,56.7,42.3,56.7,42.3,56.7z M53.4,48c-1.6-0.9-2.1-2.9-1.2-4.5c0.9-1.6,2.9-2.1,4.5-1.2
		c1.6,0.9,2.1,2.9,1.2,4.5C57,48.3,55,48.9,53.4,48C53.4,48,53.4,48,53.4,48z M58.7,34.8c-1.8,0-3.3-1.5-3.3-3.3
		c0-1.8,1.5-3.3,3.3-3.3c1.8,0,3.3,1.5,3.3,3.3C62,33.3,60.5,34.8,58.7,34.8C58.7,34.8,58.7,34.8,58.7,34.8z M56.7,20.7
		c-1.6,0.9-3.6,0.4-4.5-1.2c-0.9-1.6-0.4-3.6,1.2-4.5c1.6-0.9,3.6-0.4,4.5,1.2C58.8,17.8,58.3,19.8,56.7,20.7
		C56.7,20.7,56.7,20.7,56.7,20.7z M48,9.6c-0.9,1.6-2.9,2.1-4.5,1.2c-1.6-0.9-2.1-2.9-1.2-4.5c0.9-1.6,2.9-2.1,4.5-1.2
		C48.3,6,48.9,8,48,9.6C48,9.6,48,9.6,48,9.6z"/>
</g>
</svg>
