<?xml version="1.0" encoding="utf-8"?>
<!-- Generator: Adobe Illustrator 16.0.3, SVG Export Plug-In . SVG Version: 6.00 Build 0)  -->
<!DOCTYPE svg PUBLIC "-//W3C//DTD SVG 1.1//EN" "http://www.w3.org/Graphics/SVG/1.1/DTD/svg11.dtd">
<svg version="1.1" id="Layer_1" xmlns="http://www.w3.org/2000/svg" xmlns:xlink="http://www.w3.org/1999/xlink" x="0px" y="0px"
	 width="64px" height="64px" viewBox="0 0 64 64" enable-background="new 0 0 64 64" xml:space="preserve">
<g>
	<path fill="#FFFFFF" d="M34.719,32c0,1.486-1.217,2.691-2.721,2.691c-1.5,0-2.717-1.205-2.717-2.691s1.215-2.691,2.717-2.693
		c1.5,0,2.721,1.204,2.721,2.69C34.719,31.999,34.719,31.999,34.719,32 z M34.719,19.851c0,1.486-1.217,2.691-2.721,2.691c-1.5,0-2.717-1.205-2.717-2.691s1.215-2.691,2.717-2.693
		c1.5,0,2.721,1.204,2.721,2.69C34.719,19.85,34.719,19.85,34.719,19.851 z M26.274,20.945c0.955,1.138,0.798,2.844-0.354,3.811c-1.148,0.964-2.855,0.823-3.811-0.315
		c-0.956-1.139-0.8-2.843,0.35-3.809c1.149-0.964,2.857-0.827,3.813,0.312C26.273,20.944,26.273,20.944,26.274,20.945 z M20.507,27.211c1.464,0.258,2.439,1.666,2.178,3.147c-0.26,1.477-1.658,2.465-3.121,2.208
		c-1.465-0.258-2.439-1.664-2.181-3.143c0.261-1.478,1.657-2.471,3.122-2.213C20.506,27.211,20.506,27.211,20.507,27.211 z M20.119,35.719c1.287-0.744,2.939-0.292,3.691,1.012c0.75,1.297,0.314,2.954-0.973,3.696
		c-1.287,0.745-2.938,0.294-3.69-1.005c-0.75-1.3-0.318-2.959,0.97-3.703C20.117,35.719,20.117,35.719,20.119,35.719 z M25.289,42.485c0.508-1.397,2.064-2.112,3.479-1.598c1.408,0.511,2.14,2.062,1.631,3.456
		c-0.508,1.398-2.062,2.113-3.473,1.603c-1.41-0.513-2.146-2.062-1.639-3.46C25.287,42.486,25.287,42.486,25.289,42.485 z M33.6,44.346c-0.51-1.396,0.223-2.945,1.637-3.46c1.408-0.515,2.965,0.204,3.471,1.599
		c0.51,1.398-0.221,2.945-1.629,3.461c-1.41,0.514-2.971-0.2-3.48-1.598C33.598,44.348,33.598,44.348,33.6,44.346 z M41.162,40.428c-1.289-0.741-1.723-2.398-0.971-3.701c0.748-1.3,2.402-1.75,3.686-1.007
		c1.291,0.743,1.725,2.397,0.977,3.698c-0.75,1.301-2.404,1.756-3.691,1.014C41.162,40.432,41.162,40.432,41.162,40.428 z M44.436,32.566c-1.463,0.261-2.861-0.73-3.121-2.211c-0.264-1.477,0.715-2.885,2.176-3.141
		c1.467-0.26,2.861,0.729,3.125,2.205c0.262,1.479-0.713,2.891-2.176,3.15C44.439,32.569,44.439,32.569,44.436,32.566 z M41.891,24.44c-0.953,1.14-2.662,1.28-3.812,0.312c-1.15-0.961-1.307-2.67-0.352-3.804
		c0.955-1.143,2.66-1.281,3.811-0.32c1.152,0.965,1.312,2.673,0.357,3.812C41.895,24.44,41.895,24.44,41.891,24.44 z M34.719,9.534c0,1.486-1.217,2.692-2.72,2.692c-1.501,0-2.717-1.206-2.717-2.692s1.215-2.691,2.717-2.693
		c1.5,0,2.72,1.204,2.72,2.69C34.719,9.532,34.719,9.532,34.719,9.534 z M23.121,11.184c0.743,1.288,0.293,2.94-1.01,3.692c-1.3,0.75-2.956,0.314-3.699-0.973
		c-0.743-1.287-0.293-2.938,1.008-3.691c1.298-0.75,2.957-0.317,3.7,0.97C23.121,11.183,23.121,11.183,23.121,11.184 z M13.902,18.413c1.287,0.743,1.725,2.399,0.972,3.702c-0.751,1.299-2.402,1.75-3.69,1.007
		c-1.287-0.743-1.723-2.398-0.973-3.701c0.75-1.298,2.402-1.753,3.689-1.01C13.902,18.412,13.902,18.412,13.902,18.413 z M9.533,29.282c1.486,0,2.693,1.216,2.692,2.721c-0.001,1.5-1.205,2.716-2.692,2.716
		c-1.486,0-2.691-1.215-2.692-2.718c0.001-1.499,1.204-2.72,2.689-2.72C9.533,29.281,9.533,29.281,9.533,29.282 z M11.185,40.879c1.287-0.742,2.94-0.293,3.691,1.011c0.749,1.3,0.315,2.954-0.974,3.698
		c-1.287,0.743-2.938,0.294-3.69-1.008c-0.749-1.299-0.317-2.957,0.97-3.699C11.184,40.879,11.184,40.879,11.185,40.879 z M18.413,50.098c0.743-1.287,2.399-1.725,3.702-0.971c1.299,0.751,1.75,2.4,1.006,3.689
		c-0.743,1.287-2.396,1.723-3.7,0.973c-1.298-0.75-1.753-2.402-1.01-3.689C18.412,50.098,18.412,50.098,18.413,50.098 z M29.282,54.467c0-1.486,1.216-2.693,2.721-2.691c1.501,0,2.716,1.203,2.716,2.691
		c0,1.486-1.214,2.69-2.718,2.693c-1.499-0.002-2.72-1.205-2.72-2.691C29.281,54.467,29.281,54.467,29.282,54.467 z M40.88,52.816c-0.743-1.287-0.294-2.941,1.011-3.691c1.3-0.751,2.953-0.316,3.697,0.973
		c0.743,1.287,0.294,2.938-1.007,3.691c-1.3,0.748-2.958,0.316-3.701-0.971C40.879,52.816,40.879,52.816,40.88,52.816 z M50.099,45.588c-1.287-0.743-1.726-2.4-0.971-3.703c0.751-1.3,2.399-1.75,3.688-1.006
		c1.287,0.743,1.723,2.397,0.974,3.701c-0.751,1.297-2.403,1.752-3.69,1.01C50.098,45.588,50.098,45.588,50.099,45.588 z M54.468,34.719c-1.486,0-2.694-1.217-2.692-2.722c0.001-1.501,1.203-2.715,2.691-2.715
		c1.486,0,2.691,1.215,2.693,2.718c-0.002,1.499-1.205,2.719-2.69,2.719C54.467,34.719,54.467,34.719,54.468,34.719 z M52.816,23.121c-1.287,0.743-2.941,0.293-3.692-1.011c-0.749-1.3-0.315-2.953,0.974-3.697
		c1.287-0.743,2.938-0.293,3.691,1.007c0.748,1.299,0.316,2.958-0.971,3.7C52.816,23.121,52.816,23.121,52.816,23.121 z M45.588,13.902c-0.743,1.287-2.4,1.725-3.703,0.97c-1.299-0.751-1.75-2.4-1.006-3.689
		c0.743-1.287,2.397-1.723,3.701-0.973c1.297,0.751,1.752,2.403,1.009,3.69C45.588,13.902,45.588,13.902,45.588,13.902 z"/>
</g>
<circle fill="none" cx="32" cy="32" r="15.938"/>
</svg>
