<?xml version="1.0" encoding="utf-8"?>
<!-- Generator: Adobe Illustrator 16.0.3, SVG Export Plug-In . SVG Version: 6.00 Build 0)  -->
<!DOCTYPE svg PUBLIC "-//W3C//DTD SVG 1.1//EN" "http://www.w3.org/Graphics/SVG/1.1/DTD/svg11.dtd">
<svg version="1.1" id="Layer_1" xmlns="http://www.w3.org/2000/svg" xmlns:xlink="http://www.w3.org/1999/xlink" x="0px" y="0px"
	 width="64px" height="64px" viewBox="0 0 64 64" enable-background="new 0 0 64 64" xml:space="preserve">
<g>
	<path fill="#FFFFFF" d="M29.358,32.057c0-1.486,1.217-2.691,2.721-2.691c1.5,0,2.717,1.205,2.717,2.691s-1.215,2.691-2.717,2.693
		c-1.5,0-2.721-1.205-2.721-2.69C29.358,32.058,29.358,32.058,29.358,32.057z M29.38,32.066c0-1.486,1.217-2.691,2.721-2.691
		c1.5,0,2.717,1.205,2.717,2.691s-1.215,2.691-2.717,2.693c-1.5,0-2.721-1.204-2.721-2.69C29.38,32.067,29.38,32.067,29.38,32.066z
		 M29.967,33.783c-0.955-1.138-0.798-2.844,0.354-3.811c1.147-0.965,2.854-0.823,3.811,0.314c0.956,1.139,0.8,2.844-0.351,3.81
		c-1.148,0.964-2.856,0.827-3.812-0.312C29.968,33.785,29.968,33.785,29.967,33.783z M31.708,34.84
		c-1.464-0.259-2.439-1.666-2.178-3.147c0.26-1.478,1.658-2.464,3.121-2.208c1.465,0.258,2.438,1.664,2.181,3.143
		c-0.261,1.479-1.656,2.471-3.122,2.213C31.709,34.84,31.709,34.84,31.708,34.84z M33.295,34.388
		c-1.288,0.744-2.939,0.291-3.691-1.012c-0.75-1.297-0.313-2.955,0.974-3.697c1.287-0.744,2.938-0.293,3.689,1.006
		c0.75,1.3,0.317,2.959-0.97,3.703C33.297,34.388,33.297,34.388,33.295,34.388z M34.463,32.825
		c-0.508,1.396-2.064,2.111-3.479,1.598c-1.407-0.512-2.14-2.062-1.631-3.457c0.508-1.397,2.062-2.112,3.474-1.602
		c1.41,0.512,2.146,2.062,1.639,3.459C34.465,32.823,34.465,32.823,34.463,32.825z M34.654,31.111
		c0.51,1.396-0.224,2.945-1.637,3.459c-1.408,0.516-2.966-0.203-3.472-1.598c-0.51-1.398,0.222-2.945,1.629-3.461
		c1.41-0.515,2.972,0.199,3.479,1.598C34.656,31.109,34.656,31.109,34.654,31.111z M33.323,29.72
		c1.289,0.74,1.723,2.398,0.971,3.701c-0.748,1.299-2.401,1.75-3.686,1.006c-1.291-0.742-1.725-2.396-0.977-3.697
		c0.75-1.301,2.403-1.756,3.69-1.014C33.323,29.716,33.323,29.716,33.323,29.72z M31.722,29.23c1.463-0.262,2.86,0.73,3.121,2.211
		c0.264,1.477-0.715,2.885-2.177,3.141c-1.467,0.26-2.86-0.729-3.125-2.205c-0.262-1.479,0.714-2.891,2.177-3.149
		C31.718,29.229,31.718,29.229,31.722,29.23z M29.974,30.367c0.953-1.14,2.662-1.279,3.812-0.312
		c1.149,0.961,1.308,2.67,0.353,3.804c-0.955,1.143-2.66,1.281-3.812,0.32c-1.151-0.965-1.312-2.673-0.356-3.812
		C29.97,30.367,29.97,30.367,29.974,30.367z M29.38,32.08c0-1.486,1.217-2.691,2.72-2.691c1.501,0,2.717,1.205,2.717,2.691
		s-1.215,2.691-2.717,2.693c-1.5,0-2.72-1.204-2.72-2.69C29.38,32.082,29.38,32.082,29.38,32.08z M29.633,33.441
		c-0.743-1.289-0.293-2.94,1.011-3.692c1.299-0.75,2.956-0.313,3.698,0.974c0.743,1.286,0.293,2.938-1.008,3.69
		c-1.298,0.75-2.957,0.317-3.7-0.97C29.633,33.441,29.633,33.441,29.633,33.441z M30.767,34.414
		c-1.287-0.742-1.725-2.398-0.972-3.701c0.751-1.299,2.402-1.75,3.689-1.008c1.287,0.744,1.724,2.398,0.974,3.701
		c-0.75,1.299-2.402,1.754-3.689,1.01C30.767,34.416,30.767,34.416,30.767,34.414z M32.163,34.85c-1.486,0-2.693-1.215-2.691-2.72
		c0-1.5,1.205-2.715,2.691-2.715s2.691,1.215,2.692,2.717c-0.001,1.5-1.204,2.72-2.689,2.72
		C32.163,34.852,32.163,34.852,32.163,34.85z M33.369,34.424c-1.288,0.742-2.94,0.293-3.691-1.012
		c-0.749-1.299-0.315-2.953,0.974-3.697c1.287-0.743,2.938-0.294,3.69,1.008c0.749,1.299,0.316,2.957-0.971,3.699
		C33.369,34.424,33.369,34.424,33.369,34.424z M34.295,33.272c-0.743,1.287-2.399,1.725-3.702,0.971
		c-1.299-0.751-1.75-2.4-1.006-3.689c0.743-1.287,2.396-1.723,3.7-0.973c1.298,0.75,1.753,2.402,1.01,3.689
		C34.296,33.272,34.296,33.272,34.295,33.272z M34.64,31.868c0,1.486-1.216,2.693-2.721,2.691c-1.501,0-2.716-1.203-2.716-2.691
		c0-1.486,1.214-2.69,2.718-2.693c1.499,0.002,2.72,1.205,2.72,2.691C34.641,31.868,34.641,31.868,34.64,31.868z M34.404,30.708
		c0.743,1.287,0.294,2.941-1.011,3.691c-1.301,0.751-2.953,0.316-3.697-0.973c-0.743-1.287-0.294-2.938,1.007-3.691
		c1.3-0.748,2.958-0.316,3.701,0.971C34.405,30.708,34.405,30.708,34.404,30.708z M33.354,29.725c1.287,0.742,1.727,2.4,0.972,3.703
		c-0.751,1.3-2.399,1.75-3.688,1.006c-1.287-0.743-1.723-2.396-0.974-3.701c0.751-1.297,2.403-1.752,3.69-1.01
		C33.356,29.725,33.356,29.725,33.354,29.725z M32.137,29.246c1.485,0,2.694,1.217,2.692,2.722
		c-0.002,1.501-1.203,2.715-2.691,2.715c-1.486,0-2.691-1.215-2.693-2.718c0.002-1.499,1.205-2.719,2.689-2.719
		C32.138,29.246,32.138,29.246,32.137,29.246z M30.585,29.663c1.287-0.743,2.941-0.293,3.692,1.011
		c0.749,1.3,0.315,2.953-0.974,3.697c-1.287,0.743-2.938,0.293-3.691-1.007c-0.748-1.299-0.316-2.958,0.971-3.7
		C30.585,29.663,30.585,29.663,30.585,29.663z M29.678,30.713c0.742-1.287,2.4-1.726,3.703-0.971c1.299,0.751,1.75,2.4,1.006,3.689
		c-0.743,1.287-2.396,1.723-3.701,0.973c-1.297-0.751-1.752-2.403-1.009-3.689C29.678,30.713,29.678,30.713,29.678,30.713z"/>
</g>
<circle fill="none" cx="32" cy="32" r="15.938"/>
</svg>
